<svg xmlns="http://www.w3.org/2000/svg" version="1.1" xmlns:xlink="http://www.w3.org/1999/xlink" xmlns:svgjs="http://svgjs.dev/svgjs" width="2000" height="1247" viewBox="0 0 2000 1247"><g transform="matrix(1,0,0,1,-1.2121212121212466,0.504858299595071)"><svg viewBox="0 0 396 247" data-background-color="#f5f5f5" preserveAspectRatio="xMidYMid meet" height="1247" width="2000" xmlns="http://www.w3.org/2000/svg" xmlns:xlink="http://www.w3.org/1999/xlink"><g id="tight-bounds" transform="matrix(1,0,0,1,0.2400000000000091,-0.09999999999999432)"><svg viewBox="0 0 395.52 247.2" height="247.2" width="395.52"><g><svg></svg></g><g><svg viewBox="0 0 395.52 247.2" height="247.2" width="395.52"><g transform="matrix(1,0,0,1,75.54432000000001,55.297230422675455)"><svg viewBox="0 0 244.43135999999996 136.60553915464908" height="136.60553915464908" width="244.43135999999996"><g><svg viewBox="0 0 244.43135999999996 136.60553915464908" height="136.60553915464908" width="244.43135999999996"><g><svg viewBox="0 0 244.43135999999996 136.60553915464908" height="136.60553915464908" width="244.43135999999996"><g><svg viewBox="0 0 244.43135999999996 136.60553915464908" height="136.60553915464908" width="244.43135999999996"><g id="textblocktransform"><svg viewBox="0 0 244.43135999999996 136.60553915464908" height="136.60553915464908" width="244.43135999999996" id="textblock"><g><svg viewBox="0 0 244.43135999999996 82.49694984354045" height="82.49694984354045" width="244.43135999999996"><g transform="matrix(1,0,0,1,0,0)"><svg width="244.43135999999996" viewBox="3.5 -37.5 111.84 37.75" height="82.49694984354045" data-palette-color="#8244cb"><path d="M12.9-2.4L12.9 0 3.5 0 3.5-2.4 6.5-2.75 6.5-32.2 3.75-32.55 3.75-35 12.65-35 12.65-32.55 9.9-32.2 9.9-2.75 12.9-2.4ZM34.9-24.5L34.1-21.7Q32.3-22.3 29.2-22.3 26.1-22.3 24.4-21.2 22.7-20.1 22.7-18.48 22.7-16.85 23.7-16.1 24.7-15.35 26.2-14.83 27.7-14.3 29.47-13.8 31.25-13.3 32.75-12.5L32.75-12.5Q36.25-10.7 36.25-7.15 36.25-3.6 33.82-1.7 31.4 0.2 26.75 0.2L26.75 0.2Q24.4 0.2 22.22-0.28 20.05-0.75 18.9-1.6L18.9-1.6 20-4.25Q21.15-3.25 24.65-2.8L24.65-2.8Q25.75-2.65 26.9-2.65L26.9-2.65Q29.5-2.65 31.25-3.73 33-4.8 33-7L33-7Q33-8.5 32-9.35 31-10.2 29.5-10.78 28-11.35 26.22-11.8 24.45-12.25 22.95-12.98 21.45-13.7 20.45-14.88 19.45-16.05 19.45-18.05L19.45-18.05Q19.45-21.3 21.95-23.25 24.45-25.2 28.65-25.2L28.65-25.2Q29.7-25.2 30.8-25.08 31.9-24.95 32.8-24.85L32.8-24.85 34.9-24.5ZM43.15-12.3L43.15-11.5Q43.15-2.7 51.55-2.7L51.55-2.7Q55.09-2.7 58.05-3.65L58.05-3.65Q58.8-3.9 59.1-4.05L59.1-4.05 59.85-1.4Q58.1-0.35 53.5 0.1L53.5 0.1Q52.2 0.2 50.75 0.2L50.75 0.2Q46.55 0.2 43.75-1.9L43.75-1.9Q39.9-4.75 39.9-11.4 39.9-18.05 43.37-21.63 46.85-25.2 51.8-25.2 56.75-25.2 59.25-22L59.25-22Q61.15-19.45 61.15-15.25L61.15-15.25Q61.15-14.25 61.05-13.15L61.05-13.15 43.2-13.15Q43.15-12.75 43.15-12.3L43.15-12.3ZM52-22.1L52-22.1Q48.9-22.1 46.7-20.23 44.5-18.35 43.65-15.4L43.65-15.4 58.2-15.4Q57.95-20.95 53.9-21.85L53.9-21.85Q53-22.1 52-22.1ZM69.19-37.5L69.19 0 65.94 0 65.94-37.25 69.19-37.5ZM69.19-13.3L79.24-25 83.14-25 72.44-13.3 84.14 0 80.49 0.25 69.19-13.3ZM87.79-19.9L86.89-22.3Q92.34-25 96.44-25.15L96.44-25.15Q99.69-25.15 101.47-24.33 103.24-23.5 104.34-22.03 105.44-20.55 105.44-17.9L105.44-17.9 105.44 0 102.19 0 102.19-1.9Q95.34 0.2 93.39 0.2L93.39 0.2Q93.29 0.2 93.24 0.2L93.24 0.2Q88.74 0.2 87.09-2.55L87.09-2.55Q86.49-3.55 86.42-4.5 86.34-5.45 86.34-6.1L86.34-6.1Q86.34-7.9 87.74-9.33 89.14-10.75 91.09-11.25L91.09-11.25Q94.39-12.1 102.19-12.75L102.19-12.75 102.19-16.8Q102.19-22.25 96.49-22.25L96.49-22.25Q92.49-22.25 87.79-19.9L87.79-19.9ZM89.39-5.7L89.39-5.7Q89.39-2.1 94.34-2.1L94.34-2.1Q98.29-2.1 102.19-3.8L102.19-3.8 102.19-10.95Q94.39-9.85 92.54-9.25L92.54-9.25Q89.39-8.25 89.39-5.7ZM111.49-25L114.74-25.25 114.74 0 111.49 0 111.49-25ZM112.99-31.7Q111.99-31.7 111.46-32.35 110.94-33 110.94-34 110.94-35 111.51-35.63 112.09-36.25 113.09-36.25 114.09-36.25 114.71-35.63 115.34-35 115.34-33.9 115.34-32.8 114.66-32.25 113.99-31.7 112.99-31.7Z" opacity="1" transform="matrix(1,0,0,1,0,0)" fill="#8244cb" class="wordmark-text-0" data-fill-palette-color="primary" id="text-0"></path></svg></g></svg></g><g transform="matrix(1,0,0,1,0,101.9724997748041)"><svg viewBox="0 0 244.43135999999996 34.63303937984496" height="34.63303937984496" width="244.43135999999996"><g transform="matrix(1,0,0,1,0,0)"><svg width="244.43135999999996" viewBox="3.4 -38.5 348.26000000000005 49.35" height="34.63303937984496" data-palette-color="#3b3b58"><path d="M15.25-25.35L15.25-25.35Q17.85-25.35 19.8-24.25 21.75-23.15 23.03-21.28 24.3-19.4 24.95-17.15 25.6-14.9 25.6-12.55L25.6-12.55Q25.6-9.2 24.43-6.18 23.25-3.15 20.83-1.25 18.4 0.65 14.65 0.65L14.65 0.65Q12.55 0.65 10.63-0.15 8.7-0.95 7.35-2.55L7.35-2.55 6.45 0.05 3.95 0.05Q4-0.8 4.05-1.68 4.1-2.55 4.1-3.4L4.1-3.4 4.1-35.2 3.4-38.1 8.25-38.1 8.25-24.3Q8.25-23.85 8.22-23.43 8.2-23 8.15-22.55L8.15-22.55Q9.75-24 11.43-24.68 13.1-25.35 15.25-25.35ZM14.2-21.8L14.2-21.8Q12.55-21.8 10.98-21.03 9.4-20.25 8.25-19.05L8.25-19.05 8.25-9.95Q8.25-7.85 8.85-6.15 9.45-4.45 10.83-3.45 12.2-2.45 14.5-2.45L14.5-2.45Q16.4-2.45 17.68-3.43 18.95-4.4 19.7-5.93 20.45-7.45 20.8-9.18 21.15-10.9 21.15-12.4L21.15-12.4Q21.15-14.05 20.78-15.7 20.4-17.35 19.58-18.73 18.75-20.1 17.43-20.95 16.1-21.8 14.2-21.8ZM31.25-24.85L36.05-24.85 36.05-9.55Q36.05-8.1 36.3-6.58 36.55-5.05 37.42-4.05 38.3-3.05 40.2-3.05L40.2-3.05Q42.05-3.05 43.57-3.85 45.1-4.65 46.05-6.08 47-7.5 47-9.4L47-9.4 47-21.9Q47-21.95 46.85-22.63 46.7-23.3 46.55-24.03 46.4-24.75 46.35-24.85L46.35-24.85 51.15-24.85 51.15-4.85Q51.15-3.9 51.47-3.45 51.8-3 52.5-3L52.5-3Q53.2-3 54.4-3.45L54.4-3.45 55.3-0.75Q54.3-0.2 53.07 0.13 51.85 0.45 50.75 0.45L50.75 0.45Q49.45 0.45 48.45-0.3 47.45-1.05 47.15-2.95L47.15-2.95Q45.7-1.45 43.67-0.4 41.65 0.65 39.5 0.65L39.5 0.65Q36.75 0.65 35.07-0.5 33.4-1.65 32.65-3.63 31.9-5.6 31.9-8.2L31.9-8.2 31.9-21.9 31.25-24.85ZM64.8-33.2L64.8-33.2Q64.8-31.95 63.92-31.05 63.05-30.15 61.75-30.15L61.75-30.15Q60.5-30.15 59.62-31.05 58.75-31.95 58.75-33.2L58.75-33.2Q58.75-34.45 59.62-35.35 60.5-36.25 61.75-36.25L61.75-36.25Q63-36.25 63.9-35.35 64.8-34.45 64.8-33.2ZM59.15-24.85L63.9-24.85 63.9 0 59.75 0 59.75-21.9 59.15-24.85ZM71.64-38.1L76.44-38.1 76.44 0 72.29 0 72.29-35.2 71.64-38.1ZM93.99-25.4L93.99-25.4Q95.69-25.4 97.39-24.85 99.09-24.3 100.34-23.15L100.34-23.15Q100.29-23.85 100.27-24.53 100.24-25.2 100.24-25.85L100.24-25.85 100.24-35.15 99.54-38.1 104.34-38.1 104.34-7.15Q104.34-6.1 104.49-4.8 104.64-3.5 104.99-2.27 105.34-1.05 105.89-0.1L105.89-0.1 101.49 0.45Q101.14-0.4 100.89-1.25 100.64-2.1 100.54-2.95L100.54-2.95Q99.24-1.25 97.29-0.3 95.34 0.65 93.19 0.65L93.19 0.65Q90.59 0.65 88.64-0.45 86.69-1.55 85.42-3.43 84.14-5.3 83.52-7.58 82.89-9.85 82.89-12.2L82.89-12.2Q82.89-15.6 84.11-18.63 85.34-21.65 87.79-23.53 90.24-25.4 93.99-25.4ZM94.09-22L94.09-22Q92.14-22 90.81-21.15 89.49-20.3 88.72-18.9 87.94-17.5 87.61-15.83 87.29-14.15 87.29-12.5L87.29-12.5Q87.29-10.8 87.67-9.13 88.04-7.45 88.86-6.05 89.69-4.65 91.06-3.83 92.44-3 94.44-3L94.44-3Q96.19-3 97.67-4.03 99.14-5.05 100.24-6.3L100.24-6.3 100.24-14.7Q100.24-16.7 99.62-18.35 98.99-20 97.64-21 96.29-22 94.09-22ZM120.64-24.85L125.14-24.85Q126.24-21.75 127.31-18.65 128.39-15.55 129.49-12.3L129.49-12.3Q130.04-10.6 130.61-8.88 131.19-7.15 131.74-5.45L131.74-5.45Q132.29-7.2 132.86-8.9 133.44-10.6 133.99-12.3L133.99-12.3Q135.09-15.55 136.16-18.65 137.24-21.75 138.34-24.85L138.34-24.85 142.24-24.85 133.44 0.1Q132.89 1.65 132.04 3.53 131.19 5.4 130.04 7.05 128.89 8.7 127.34 9.78 125.79 10.85 123.84 10.85L123.84 10.85 121.94 10.85 121.94 7.5Q122.09 7.5 122.21 7.5 122.34 7.5 122.49 7.5L122.49 7.5Q124.59 7.5 125.96 6.25 127.34 5 128.24 3.23 129.14 1.45 129.74-0.2L129.74-0.2 120.64-24.85ZM155.33 0.65L155.33 0.65Q151.68 0.65 149.21-1.18 146.73-3 145.51-5.95 144.28-8.9 144.28-12.25L144.28-12.25Q144.28-15.6 145.61-18.63 146.93-21.65 149.48-23.55 152.03-25.45 155.63-25.45L155.63-25.45Q159.33-25.45 161.81-23.65 164.28-21.85 165.51-18.9 166.73-15.95 166.73-12.55L166.73-12.55Q166.73-9.15 165.43-6.13 164.13-3.1 161.58-1.23 159.03 0.65 155.33 0.65ZM155.38-2.5L155.38-2.5Q157.33-2.5 158.66-3.43 159.98-4.35 160.81-5.85 161.63-7.35 161.98-9.08 162.33-10.8 162.33-12.4L162.33-12.4Q162.33-14.05 162.01-15.78 161.68-17.5 160.93-18.98 160.18-20.45 158.86-21.38 157.53-22.3 155.58-22.3L155.58-22.3Q153.63-22.3 152.31-21.38 150.98-20.45 150.18-18.95 149.38-17.45 149.03-15.73 148.68-14 148.68-12.4L148.68-12.4Q148.68-10.85 149.03-9.13 149.38-7.4 150.16-5.9 150.93-4.4 152.23-3.45 153.53-2.5 155.38-2.5ZM172.28-24.85L177.08-24.85 177.08-9.55Q177.08-8.1 177.33-6.58 177.58-5.05 178.46-4.05 179.33-3.05 181.23-3.05L181.23-3.05Q183.08-3.05 184.61-3.85 186.13-4.65 187.08-6.08 188.03-7.5 188.03-9.4L188.03-9.4 188.03-21.9Q188.03-21.95 187.88-22.63 187.73-23.3 187.58-24.03 187.43-24.75 187.38-24.85L187.38-24.85 192.18-24.85 192.18-4.85Q192.18-3.9 192.5-3.45 192.83-3 193.53-3L193.53-3Q194.23-3 195.43-3.45L195.43-3.45 196.33-0.75Q195.33-0.2 194.11 0.13 192.88 0.45 191.78 0.45L191.78 0.45Q190.48 0.45 189.48-0.3 188.48-1.05 188.18-2.95L188.18-2.95Q186.73-1.45 184.71-0.4 182.68 0.65 180.53 0.65L180.53 0.65Q177.78 0.65 176.11-0.5 174.43-1.65 173.68-3.63 172.93-5.6 172.93-8.2L172.93-8.2 172.93-21.9 172.28-24.85ZM199.03-24.75L203.53-25.3Q204.43-23.1 204.68-20.65L204.68-20.65Q205.98-22.7 208.18-24 210.38-25.3 212.83-25.3L212.83-25.3 211.83-20.9Q209.43-20.9 207.75-19.65 206.08-18.4 204.78-16.5L204.78-16.5 204.78 0 200.63 0 200.63-18Q200.63-19 200.48-20.25 200.33-21.5 199.98-22.7 199.63-23.9 199.03-24.75L199.03-24.75ZM240.67-38.5L240.67-38.5Q242.07-38.5 243.2-38.23 244.32-37.95 245.52-37.25L245.52-37.25 244.37-34.15Q243.72-34.75 242.7-35.08 241.67-35.4 240.77-35.4L240.77-35.4Q238.57-35.4 237.3-34.4 236.02-33.4 235.4-31.78 234.77-30.15 234.57-28.33 234.37-26.5 234.37-24.85L234.37-24.85 241.52-24.85 240.62-21.75 234.37-21.75 234.37 0 230.27 0 230.27-21.75 226.52-21.75 226.52-24.35Q227.32-24.45 228.15-24.53 228.97-24.6 229.57-25 230.17-25.4 230.37-26.35L230.37-26.35Q230.87-28.65 231.12-30.08 231.37-31.5 231.82-32.6 232.27-33.7 233.27-35L233.27-35Q234.52-36.6 236.37-37.55 238.22-38.5 240.67-38.5ZM243.27-24.85L248.07-24.85 248.07-9.55Q248.07-8.1 248.32-6.58 248.57-5.05 249.45-4.05 250.32-3.05 252.22-3.05L252.22-3.05Q254.07-3.05 255.6-3.85 257.12-4.65 258.07-6.08 259.02-7.5 259.02-9.4L259.02-9.4 259.02-21.9Q259.02-21.95 258.87-22.63 258.72-23.3 258.57-24.03 258.42-24.75 258.37-24.85L258.37-24.85 263.17-24.85 263.17-4.85Q263.17-3.9 263.5-3.45 263.82-3 264.52-3L264.52-3Q265.22-3 266.42-3.45L266.42-3.45 267.32-0.75Q266.32-0.2 265.1 0.13 263.87 0.45 262.77 0.45L262.77 0.45Q261.47 0.45 260.47-0.3 259.47-1.05 259.17-2.95L259.17-2.95Q257.72-1.45 255.7-0.4 253.67 0.65 251.52 0.65L251.52 0.65Q248.77 0.65 247.1-0.5 245.42-1.65 244.67-3.63 243.92-5.6 243.92-8.2L243.92-8.2 243.92-21.9 243.27-24.85ZM274.37-31.95L277.42-31.95Q277.07-30.25 276.79-28.43 276.52-26.6 276.42-24.85L276.42-24.85 282.92-24.85 282.07-21.7 276.42-21.7 276.42-5.8Q276.42-4.85 276.64-4.13 276.87-3.4 277.44-3.03 278.02-2.65 279.07-2.65L279.07-2.65Q279.87-2.65 280.67-2.8 281.47-2.95 282.22-3.15L282.22-3.15 282.92-0.35Q281.67 0 280.54 0.28 279.42 0.55 277.97 0.55L277.97 0.55Q274.77 0.55 273.52-1.15 272.27-2.85 272.27-5.9L272.27-5.9 272.27-21.7 268.57-21.7 268.57-24.2Q270.57-24.25 271.72-25.53 272.87-26.8 273.47-28.6 274.07-30.4 274.37-31.95L274.37-31.95ZM287.27-24.85L292.06-24.85 292.06-9.55Q292.06-8.1 292.31-6.58 292.56-5.05 293.44-4.05 294.31-3.05 296.22-3.05L296.22-3.05Q298.06-3.05 299.59-3.85 301.12-4.65 302.06-6.08 303.02-7.5 303.02-9.4L303.02-9.4 303.02-21.9Q303.02-21.95 302.87-22.63 302.72-23.3 302.56-24.03 302.42-24.75 302.37-24.85L302.37-24.85 307.17-24.85 307.17-4.85Q307.17-3.9 307.49-3.45 307.81-3 308.52-3L308.52-3Q309.22-3 310.42-3.45L310.42-3.45 311.31-0.75Q310.31-0.2 309.09 0.13 307.87 0.45 306.77 0.45L306.77 0.45Q305.47 0.45 304.47-0.3 303.47-1.05 303.17-2.95L303.17-2.95Q301.72-1.45 299.69-0.4 297.67 0.65 295.52 0.65L295.52 0.65Q292.77 0.65 291.09-0.5 289.42-1.65 288.67-3.63 287.92-5.6 287.92-8.2L287.92-8.2 287.92-21.9 287.27-24.85ZM314.01-24.75L318.51-25.3Q319.41-23.1 319.66-20.65L319.66-20.65Q320.96-22.7 323.16-24 325.36-25.3 327.81-25.3L327.81-25.3 326.81-20.9Q324.41-20.9 322.74-19.65 321.06-18.4 319.76-16.5L319.76-16.5 319.76 0 315.61 0 315.61-18Q315.61-19 315.46-20.25 315.31-21.5 314.96-22.7 314.61-23.9 314.01-24.75L314.01-24.75ZM342.51-25.45L342.51-25.45Q345.51-25.45 347.56-24.23 349.61-23 350.63-20.83 351.66-18.65 351.66-15.75L351.66-15.75Q351.66-15.05 351.58-14.33 351.51-13.6 351.41-12.8L351.41-12.8 335.61-12.8Q335.61-8.05 337.71-5.45 339.81-2.85 343.31-2.85L343.31-2.85Q344.76-2.85 346.33-3.3 347.91-3.75 349.61-4.65L349.61-4.65 351.16-2.15Q349.41-0.75 347.21-0.05 345.01 0.65 342.76 0.65L342.76 0.65Q338.86 0.65 336.28-1.2 333.71-3.05 332.46-6 331.21-8.95 331.21-12.15L331.21-12.15Q331.21-14.65 331.91-17 332.61-19.35 334.03-21.28 335.46-23.2 337.56-24.33 339.66-25.45 342.51-25.45ZM342.11-22.3L342.11-22.3Q340.41-22.3 339.11-21.35 337.81-20.4 337.01-18.93 336.21-17.45 335.91-15.9L335.91-15.9 347.31-15.9Q347.36-18 346.74-19.43 346.11-20.85 344.94-21.58 343.76-22.3 342.11-22.3Z" opacity="1" transform="matrix(1,0,0,1,0,0)" fill="#3b3b58" class="slogan-text-1" data-fill-palette-color="secondary" id="text-1"></path></svg></g></svg></g></svg></g></svg></g></svg></g></svg></g></svg></g><g><path d="M0 123.6c0-68.262 55.338-123.6 123.6-123.6 38.667 0 73.188 17.756 95.852 45.559l-4.85 0c-21.986-25.614-54.599-41.84-91.002-41.839-66.208 0-119.88 53.672-119.88 119.88 0 66.208 53.672 119.88 119.88 119.88 36.403 0 69.016-16.226 91.002-41.839h4.85c-22.664 27.803-57.185 45.559-95.852 45.559-68.262 0-123.6-55.338-123.6-123.6z" fill="#8244cb" stroke="transparent" data-fill-palette-color="tertiary"></path></g></svg></g><defs></defs></svg><rect width="395.52" height="247.2" fill="none" stroke="none" visibility="hidden"></rect></g></svg></g></svg>